<svg width="960" height="395" viewBox="0 0 960 395" fill="none" xmlns="http://www.w3.org/2000/svg">
<g clip-path="url(#clip0_2_2)">
<path d="M960 0H0V395H960V0Z" fill="white"/>
<path d="M0 83.9979L22.8 77.7599C45.7 71.5979 91.3 59.1217 137 62.9254C182.7 66.7291 228.3 86.8127 274 82.0961C319.7 77.3795 365.3 48.0149 411.2 32.2675C457 16.5202 503 14.5423 548.8 21.389C594.7 28.2356 640.3 43.9069 686 58.2849C731.7 72.5868 777.3 85.5194 823 89.8557C868.7 94.1158 914.3 89.8557 937.2 87.6495L960 85.5194V-38.4814H937.2C914.3 -38.4814 868.7 -38.4814 823 -38.4814C777.3 -38.4814 731.7 -38.4814 686 -38.4814C640.3 -38.4814 594.7 -38.4814 548.8 -38.4814C503 -38.4814 457 -38.4814 411.2 -38.4814C365.3 -38.4814 319.7 -38.4814 274 -38.4814C228.3 -38.4814 182.7 -38.4814 137 -38.4814C91.3 -38.4814 45.7 -38.4814 22.8 -38.4814H0V83.9979Z" fill="black"/>
</g>
<defs>
<clipPath id="clip0_2_2">
<rect width="960" height="395" fill="white"/>
</clipPath>
</defs>
</svg>
