<svg width="1080" height="330" viewBox="0 0 1080 330" fill="none" xmlns="http://www.w3.org/2000/svg">
<g clip-path="url(#clip0_0_3)">
<path d="M258.984 -0.088623H219.042C216.875 -0.088623 215.328 1.46346 215.328 2.69784V164.026L101.068 0.843669C100.755 0.223877 98.901 -0.088623 98.2812 -0.088623H57.099C55.5469 -0.088623 54 1.46346 54 2.69784V188.177H101.375V83.5155L215.328 246.703C215.635 247.323 217.495 247.63 218.115 247.63H258.984C261.151 247.63 262.391 246.083 262.391 244.844V2.69784C262.391 1.46346 261.151 -0.088623 258.984 -0.088623Z" fill="#009DEE"/>
<path d="M390.587 201.495H320.295V145.755H417.524C419.383 145.755 420.93 144.208 420.93 142.969V103.646C420.93 102.094 419.383 100.859 417.524 100.859H320.295V44.8124H390.587V-0.088623H276.326C274.467 -0.088623 272.92 1.46346 272.92 2.69784V244.844C272.92 246.083 274.467 247.63 276.326 247.63H390.587V201.495Z" fill="#009DEE"/>
<path d="M654.097 -0.088623H604.55C603.93 -0.088623 602.076 0.223877 601.763 0.843669L543.243 83.5155L517.232 47.2864H459.638C477.904 72.9895 495.868 98.6926 514.133 123.771L429.289 242.984C427.435 245.151 428.67 247.63 431.769 247.63H481.31C481.93 247.63 483.789 247.323 484.097 246.703L543.243 164.026L568.94 200.255H626.534C608.269 174.552 589.998 148.854 571.727 123.771L657.19 4.55721C658.737 2.39054 657.503 -0.088623 654.097 -0.088623Z" fill="#009DEE"/>
<path d="M851.96 -0.088623H811.705C809.538 -0.088623 808.298 1.46346 808.298 2.69784V164.953C808.298 190.036 785.387 202.115 762.163 202.115C739.246 202.115 718.809 189.109 716.022 164.646V44.8124H669.267V164.953C669.267 216.047 711.069 247.63 762.163 247.63C814.804 247.63 855.054 217.286 855.054 164.953V2.69784C855.054 1.46346 853.507 -0.088623 851.96 -0.088623Z" fill="#009DEE"/>
<path d="M977.985 110.146C960.334 101.786 942.995 101.786 941.448 101.786C925.657 101.786 910.48 92.4947 910.48 74.5364C910.48 54.7187 924.417 44.4999 941.448 44.4999C957.547 44.4999 971.172 52.8645 971.792 70.5103C971.792 71.4426 973.339 72.9895 975.198 72.9895H1013.9C1016.07 72.9895 1017.62 71.4426 1017.31 70.5103C1016.69 28.401 983.87 -0.088623 941.448 -0.088623C901.813 -0.088623 864.344 28.0885 864.344 74.5364C864.344 103.333 878.896 125.318 904.6 137.088C922.558 145.448 939.277 145.448 941.448 145.448C955.381 146.068 972.412 157.213 972.412 175.484C972.412 191.896 957.86 203.042 941.448 203.042C941.448 203.042 941.448 203.042 941.136 203.042V247.63C941.448 247.63 941.448 247.63 941.448 247.63C981.079 247.63 1018.24 221.927 1018.24 175.484C1018.24 146.375 1004 122.224 977.985 110.146Z" fill="#009DEE"/>
<path d="M186.373 291.501H180.113C179.826 291.501 179.587 291.74 179.587 291.933V306.933H186.899V298.475C195.212 298.048 201.373 301.532 201.373 310.61C201.373 322.412 191.53 322.891 186.899 322.699V314.292H179.587V329.292C179.587 329.485 179.826 329.725 180.113 329.725H186.373C195.879 329.725 208.733 326.954 208.733 310.61C208.733 293.652 195.691 291.501 186.373 291.501Z" fill="white"/>
<path d="M266.596 322.605H255.752V314.006H270.752C271.039 314.006 271.278 313.766 271.278 313.574V307.506C271.278 307.266 271.039 307.079 270.752 307.079H255.752V298.428H266.596V291.501H248.966C248.679 291.501 248.44 291.74 248.44 291.933V329.292C248.44 329.485 248.679 329.725 248.966 329.725H266.596V322.605Z" fill="white"/>
<path d="M330.574 298.621L325.558 312.621L318.105 291.787C318.058 291.594 317.865 291.501 317.626 291.501H311.131C310.746 291.501 310.558 291.787 310.699 292.074L325.079 329.485C325.272 329.818 325.845 329.818 325.99 329.485L337.933 298.621H330.574Z" fill="white"/>
<path d="M395.702 322.605H384.858V314.006H399.858C400.145 314.006 400.385 313.766 400.385 313.574V307.506C400.385 307.266 400.145 307.079 399.858 307.079H384.858V298.428H395.702V291.501H378.072C377.786 291.501 377.546 291.74 377.546 291.933V329.292C377.546 329.485 377.786 329.725 378.072 329.725H395.702V322.605Z" fill="white"/>
<path d="M460.399 322.605H439.758V329.292C439.758 329.485 439.998 329.725 440.284 329.725H460.399C460.732 329.725 460.925 329.485 460.925 329.292V323.084C460.925 322.844 460.732 322.605 460.399 322.605ZM447.07 315.298V291.933C447.07 291.74 446.878 291.501 446.591 291.501H440.284C439.998 291.501 439.758 291.74 439.758 291.933V315.298H447.07Z" fill="white"/>
<path d="M522.229 310.709C522.229 308.704 520.651 307.079 518.646 307.079C516.641 307.079 515.062 308.704 515.062 310.709C515.062 312.667 516.641 314.292 518.646 314.292C520.651 314.292 522.229 312.667 522.229 310.709ZM537.042 310.563C537.042 301.058 530.875 291.501 518.693 291.501C506.318 291.501 500.25 301.058 500.25 310.563C500.25 320.121 506.318 329.725 518.693 329.725C530.875 329.725 537.042 320.121 537.042 310.563ZM529.875 310.709C529.875 316.871 526.099 323.037 518.693 323.037C511.193 323.037 507.463 316.871 507.463 310.709C507.463 304.449 511.193 298.235 518.693 298.235C526.099 298.235 529.875 304.449 529.875 310.709Z" fill="white"/>
<path d="M589.936 291.501H577.561C577.321 291.501 577.082 291.74 577.082 291.933V298.527H589.936C590.795 298.527 595.571 298.761 595.571 302.969C595.571 307.173 590.889 307.266 589.936 307.266H577.082V329.292C577.082 329.485 577.321 329.725 577.561 329.725H583.769C584.108 329.725 584.248 329.485 584.248 329.292V314.339H589.936C590.842 314.339 602.837 314.199 602.837 302.969C602.837 291.74 591.462 291.501 589.936 291.501Z" fill="white"/>
<path d="M676.56 320.501H683.825V291.933C683.825 291.74 683.633 291.501 683.299 291.501H676.992C676.799 291.501 676.56 291.641 676.466 291.787L663.424 319.787L649.711 291.787C649.664 291.641 649.377 291.501 649.232 291.501H642.831C642.497 291.501 642.351 291.74 642.351 291.933V329.292C642.351 329.485 642.497 329.725 642.831 329.725H649.138C649.424 329.725 649.664 329.485 649.664 329.292V307.839L660.029 327.907C660.075 328.053 660.367 328.193 660.508 328.193H666.383C666.529 328.193 666.768 328.053 666.815 327.907L676.56 308.365V320.501Z" fill="white"/>
<path d="M742.308 322.605H731.465V314.006H746.465C746.751 314.006 746.991 313.766 746.991 313.574V307.506C746.991 307.266 746.751 307.079 746.465 307.079H731.465V298.428H742.308V291.501H724.678C724.392 291.501 724.152 291.74 724.152 291.933V329.292C724.152 329.485 724.392 329.725 724.678 329.725H742.308V322.605Z" fill="white"/>
<path d="M817.994 291.501H811.833C811.494 291.501 811.26 291.74 811.26 291.933V316.824L793.624 291.641C793.578 291.548 793.291 291.501 793.197 291.501H786.843C786.604 291.501 786.364 291.74 786.364 291.933V320.553H793.677V304.402L811.26 329.579C811.307 329.678 811.593 329.725 811.687 329.725H817.994C818.328 329.725 818.52 329.485 818.52 329.292V291.933C818.52 291.74 818.328 291.501 817.994 291.501Z" fill="white"/>
<path d="M866.256 305.355V329.292C866.256 329.485 866.443 329.725 866.782 329.725H872.943C873.277 329.725 873.516 329.485 873.516 329.292V305.355H866.256ZM858.896 298.048H880.829C881.162 298.048 881.355 297.855 881.355 297.615V291.933C881.355 291.74 881.162 291.501 880.829 291.501H858.896C858.61 291.501 858.37 291.74 858.37 291.933V297.615C858.37 297.855 858.61 298.048 858.896 298.048Z" fill="white"/>
</g>
<defs>
<clipPath id="clip0_0_3">
<rect width="1080" height="330" fill="white"/>
</clipPath>
</defs>
</svg>
