<svg xmlns="http://www.w3.org/2000/svg" xmlns:xlink="http://www.w3.org/1999/xlink" width="1080" zoomAndPan="magnify" viewBox="0 0 810 809.999993" height="1080" preserveAspectRatio="xMidYMid meet" version="1.0"><defs><g/></defs><g fill="#009dee" fill-opacity="1"><g transform="translate(40.500001, 499.972591)"><g><path d="M 153.738281 -185.789062 L 123.78125 -185.789062 C 122.15625 -185.789062 120.996094 -184.625 120.996094 -183.699219 L 120.996094 -62.703125 L 35.300781 -185.089844 C 35.066406 -185.554688 33.675781 -185.789062 33.210938 -185.789062 L 2.324219 -185.789062 C 1.160156 -185.789062 0 -184.625 0 -183.699219 L 0 -44.589844 L 35.53125 -44.589844 L 35.53125 -123.085938 L 120.996094 -0.695312 C 121.226562 -0.230469 122.621094 0 123.085938 0 L 153.738281 0 C 155.363281 0 156.292969 -1.160156 156.292969 -2.089844 L 156.292969 -183.699219 C 156.292969 -184.625 155.363281 -185.789062 153.738281 -185.789062 Z M 153.738281 -185.789062 "/></g></g></g><g fill="#009dee" fill-opacity="1"><g transform="translate(204.689941, 499.972591)"><g><path d="M 88.25 -34.601562 L 35.53125 -34.601562 L 35.53125 -76.40625 L 108.453125 -76.40625 C 109.847656 -76.40625 111.007812 -77.566406 111.007812 -78.496094 L 111.007812 -107.988281 C 111.007812 -109.152344 109.847656 -110.078125 108.453125 -110.078125 L 35.53125 -110.078125 L 35.53125 -152.113281 L 88.25 -152.113281 L 88.25 -185.789062 L 2.554688 -185.789062 C 1.160156 -185.789062 0 -184.625 0 -183.699219 L 0 -2.089844 C 0 -1.160156 1.160156 0 2.554688 0 L 88.25 0 Z M 88.25 -34.601562 "/></g></g></g><g fill="#009dee" fill-opacity="1"><g transform="translate(321.271758, 499.972591)"><g><path d="M 169.300781 -185.789062 L 132.140625 -185.789062 C 131.675781 -185.789062 130.285156 -185.554688 130.050781 -185.089844 L 86.160156 -123.085938 L 66.652344 -150.257812 L 23.457031 -150.257812 C 37.15625 -130.980469 50.628906 -111.703125 64.328125 -92.894531 L 0.695312 -3.484375 C -0.695312 -1.859375 0.230469 0 2.554688 0 L 39.710938 0 C 40.175781 0 41.570312 -0.230469 41.800781 -0.695312 L 86.160156 -62.703125 L 105.433594 -35.53125 L 148.628906 -35.53125 C 134.929688 -54.808594 121.226562 -74.082031 107.523438 -92.894531 L 171.621094 -182.304688 C 172.78125 -183.929688 171.855469 -185.789062 169.300781 -185.789062 Z M 169.300781 -185.789062 "/></g></g></g><g fill="#009dee" fill-opacity="1"><g transform="translate(501.950356, 499.972591)"><g><path d="M 137.019531 -185.789062 L 106.828125 -185.789062 C 105.203125 -185.789062 104.273438 -184.625 104.273438 -183.699219 L 104.273438 -62.007812 C 104.273438 -43.195312 87.089844 -34.136719 69.671875 -34.136719 C 52.484375 -34.136719 37.15625 -43.890625 35.066406 -62.238281 L 35.066406 -152.113281 L 0 -152.113281 L 0 -62.007812 C 0 -23.6875 31.351562 0 69.671875 0 C 109.152344 0 139.339844 -22.757812 139.339844 -62.007812 L 139.339844 -183.699219 C 139.339844 -184.625 138.179688 -185.789062 137.019531 -185.789062 Z M 137.019531 -185.789062 "/></g></g></g><g fill="#009dee" fill-opacity="1"><g transform="translate(648.258249, 499.972591)"><g><path d="M 85.230469 -103.113281 C 71.992188 -109.382812 58.988281 -109.382812 57.828125 -109.382812 C 45.984375 -109.382812 34.601562 -116.351562 34.601562 -129.820312 C 34.601562 -144.683594 45.054688 -152.347656 57.828125 -152.347656 C 69.902344 -152.347656 80.121094 -146.074219 80.585938 -132.839844 C 80.585938 -132.140625 81.746094 -130.980469 83.140625 -130.980469 L 112.167969 -130.980469 C 113.796875 -130.980469 114.957031 -132.140625 114.722656 -132.839844 C 114.257812 -164.421875 89.644531 -185.789062 57.828125 -185.789062 C 28.101562 -185.789062 0 -164.65625 0 -129.820312 C 0 -108.222656 10.914062 -91.734375 30.191406 -82.90625 C 43.660156 -76.636719 56.199219 -76.636719 57.828125 -76.636719 C 68.277344 -76.171875 81.050781 -67.8125 81.050781 -54.109375 C 81.050781 -41.800781 70.136719 -33.441406 57.828125 -33.441406 C 57.828125 -33.441406 57.828125 -33.441406 57.59375 -33.441406 L 57.59375 0 C 57.828125 0 57.828125 0 57.828125 0 C 87.550781 0 115.421875 -19.277344 115.421875 -54.109375 C 115.421875 -75.941406 104.738281 -94.054688 85.230469 -103.113281 Z M 85.230469 -103.113281 "/></g></g></g><g fill="#ffffff" fill-opacity="1"><g transform="translate(134.690137, 561.543542)"><g><path d="M 5.089844 -28.667969 L 0.394531 -28.667969 C 0.179688 -28.667969 0 -28.488281 0 -28.34375 L 0 -17.09375 L 5.484375 -17.09375 L 5.484375 -23.4375 C 11.71875 -23.757812 16.339844 -21.144531 16.339844 -14.335938 C 16.339844 -5.484375 8.957031 -5.125 5.484375 -5.269531 L 5.484375 -11.574219 L 0 -11.574219 L 0 -0.324219 C 0 -0.179688 0.179688 0 0.394531 0 L 5.089844 0 C 12.21875 0 21.859375 -2.078125 21.859375 -14.335938 C 21.859375 -27.054688 12.078125 -28.667969 5.089844 -28.667969 Z M 5.089844 -28.667969 "/></g></g></g><g fill="#ffffff" fill-opacity="1"><g transform="translate(186.329899, 561.543542)"><g><path d="M 13.617188 -5.339844 L 5.484375 -5.339844 L 5.484375 -11.789062 L 16.734375 -11.789062 C 16.949219 -11.789062 17.128906 -11.96875 17.128906 -12.113281 L 17.128906 -16.664062 C 17.128906 -16.84375 16.949219 -16.984375 16.734375 -16.984375 L 5.484375 -16.984375 L 5.484375 -23.472656 L 13.617188 -23.472656 L 13.617188 -28.667969 L 0.394531 -28.667969 C 0.179688 -28.667969 0 -28.488281 0 -28.34375 L 0 -0.324219 C 0 -0.179688 0.179688 0 0.394531 0 L 13.617188 0 Z M 13.617188 -5.339844 "/></g></g></g><g fill="#ffffff" fill-opacity="1"><g transform="translate(232.988869, 561.543542)"><g><path d="M 14.941406 -23.328125 L 11.179688 -12.828125 L 5.589844 -28.453125 C 5.554688 -28.597656 5.410156 -28.667969 5.230469 -28.667969 L 0.359375 -28.667969 C 0.0703125 -28.667969 -0.0703125 -28.453125 0.0351562 -28.238281 L 10.820312 -0.179688 C 10.964844 0.0703125 11.394531 0.0703125 11.503906 -0.179688 L 20.460938 -23.328125 Z M 14.941406 -23.328125 "/></g></g></g><g fill="#ffffff" fill-opacity="1"><g transform="translate(283.159479, 561.543542)"><g><path d="M 13.617188 -5.339844 L 5.484375 -5.339844 L 5.484375 -11.789062 L 16.734375 -11.789062 C 16.949219 -11.789062 17.128906 -11.96875 17.128906 -12.113281 L 17.128906 -16.664062 C 17.128906 -16.84375 16.949219 -16.984375 16.734375 -16.984375 L 5.484375 -16.984375 L 5.484375 -23.472656 L 13.617188 -23.472656 L 13.617188 -28.667969 L 0.394531 -28.667969 C 0.179688 -28.667969 0 -28.488281 0 -28.34375 L 0 -0.324219 C 0 -0.179688 0.179688 0 0.394531 0 L 13.617188 0 Z M 13.617188 -5.339844 "/></g></g></g><g fill="#ffffff" fill-opacity="1"><g transform="translate(329.818441, 561.543542)"><g><path d="M 15.480469 -5.339844 L 0 -5.339844 L 0 -0.324219 C 0 -0.179688 0.179688 0 0.394531 0 L 15.480469 0 C 15.730469 0 15.875 -0.179688 15.875 -0.324219 L 15.875 -4.980469 C 15.875 -5.160156 15.730469 -5.339844 15.480469 -5.339844 Z M 5.484375 -10.820312 L 5.484375 -28.34375 C 5.484375 -28.488281 5.339844 -28.667969 5.125 -28.667969 L 0.394531 -28.667969 C 0.179688 -28.667969 0 -28.488281 0 -28.34375 L 0 -10.820312 Z M 5.484375 -10.820312 "/></g></g></g><g fill="#ffffff" fill-opacity="1"><g transform="translate(375.187425, 561.543542)"><g><path d="M 16.484375 -14.261719 C 16.484375 -15.765625 15.300781 -16.984375 13.796875 -16.984375 C 12.292969 -16.984375 11.109375 -15.765625 11.109375 -14.261719 C 11.109375 -12.792969 12.292969 -11.574219 13.796875 -11.574219 C 15.300781 -11.574219 16.484375 -12.792969 16.484375 -14.261719 Z M 27.59375 -14.371094 C 27.59375 -21.5 22.96875 -28.667969 13.832031 -28.667969 C 4.550781 -28.667969 0 -21.5 0 -14.371094 C 0 -7.203125 4.550781 0 13.832031 0 C 22.96875 0 27.59375 -7.203125 27.59375 -14.371094 Z M 22.21875 -14.261719 C 22.21875 -9.640625 19.386719 -5.015625 13.832031 -5.015625 C 8.207031 -5.015625 5.410156 -9.640625 5.410156 -14.261719 C 5.410156 -18.957031 8.207031 -23.617188 13.832031 -23.617188 C 19.386719 -23.617188 22.21875 -18.957031 22.21875 -14.261719 Z M 22.21875 -14.261719 "/></g></g></g><g fill="#ffffff" fill-opacity="1"><g transform="translate(432.81131, 561.543542)"><g><path d="M 9.640625 -28.667969 L 0.359375 -28.667969 C 0.179688 -28.667969 0 -28.488281 0 -28.34375 L 0 -23.398438 L 9.640625 -23.398438 C 10.285156 -23.398438 13.867188 -23.222656 13.867188 -20.066406 C 13.867188 -16.914062 10.355469 -16.84375 9.640625 -16.84375 L 0 -16.84375 L 0 -0.324219 C 0 -0.179688 0.179688 0 0.359375 0 L 5.015625 0 C 5.269531 0 5.375 -0.179688 5.375 -0.324219 L 5.375 -11.539062 L 9.640625 -11.539062 C 10.320312 -11.539062 19.316406 -11.644531 19.316406 -20.066406 C 19.316406 -28.488281 10.785156 -28.667969 9.640625 -28.667969 Z M 9.640625 -28.667969 "/></g></g></g><g fill="#ffffff" fill-opacity="1"><g transform="translate(481.763587, 561.543542)"><g><path d="M 25.65625 -6.917969 L 31.105469 -6.917969 L 31.105469 -28.34375 C 31.105469 -28.488281 30.960938 -28.667969 30.710938 -28.667969 L 25.980469 -28.667969 C 25.835938 -28.667969 25.65625 -28.5625 25.585938 -28.453125 L 15.804688 -7.453125 L 5.519531 -28.453125 C 5.484375 -28.5625 5.269531 -28.667969 5.160156 -28.667969 L 0.359375 -28.667969 C 0.109375 -28.667969 0 -28.488281 0 -28.34375 L 0 -0.324219 C 0 -0.179688 0.109375 0 0.359375 0 L 5.089844 0 C 5.304688 0 5.484375 -0.179688 5.484375 -0.324219 L 5.484375 -16.414062 L 13.257812 -1.363281 C 13.292969 -1.253906 13.511719 -1.148438 13.617188 -1.148438 L 18.023438 -1.148438 C 18.132812 -1.148438 18.3125 -1.253906 18.347656 -1.363281 L 25.65625 -16.019531 Z M 25.65625 -6.917969 "/></g></g></g><g fill="#ffffff" fill-opacity="1"><g transform="translate(543.114117, 561.543542)"><g><path d="M 13.617188 -5.339844 L 5.484375 -5.339844 L 5.484375 -11.789062 L 16.734375 -11.789062 C 16.949219 -11.789062 17.128906 -11.96875 17.128906 -12.113281 L 17.128906 -16.664062 C 17.128906 -16.84375 16.949219 -16.984375 16.734375 -16.984375 L 5.484375 -16.984375 L 5.484375 -23.472656 L 13.617188 -23.472656 L 13.617188 -28.667969 L 0.394531 -28.667969 C 0.179688 -28.667969 0 -28.488281 0 -28.34375 L 0 -0.324219 C 0 -0.179688 0.179688 0 0.394531 0 L 13.617188 0 Z M 13.617188 -5.339844 "/></g></g></g><g fill="#ffffff" fill-opacity="1"><g transform="translate(589.773079, 561.543542)"><g><path d="M 23.722656 -28.667969 L 19.101562 -28.667969 C 18.847656 -28.667969 18.671875 -28.488281 18.671875 -28.34375 L 18.671875 -9.675781 L 5.445312 -28.5625 C 5.410156 -28.632812 5.195312 -28.667969 5.125 -28.667969 L 0.359375 -28.667969 C 0.179688 -28.667969 0 -28.488281 0 -28.34375 L 0 -6.878906 L 5.484375 -6.878906 L 5.484375 -18.992188 L 18.671875 -0.109375 C 18.707031 -0.0351562 18.921875 0 18.992188 0 L 23.722656 0 C 23.972656 0 24.117188 -0.179688 24.117188 -0.324219 L 24.117188 -28.34375 C 24.117188 -28.488281 23.972656 -28.667969 23.722656 -28.667969 Z M 23.722656 -28.667969 "/></g></g></g><g fill="#ffffff" fill-opacity="1"><g transform="translate(643.777841, 561.543542)"><g><path d="M 5.914062 -18.277344 L 5.914062 -0.324219 C 5.914062 -0.179688 6.054688 0 6.308594 0 L 10.929688 0 C 11.179688 0 11.359375 -0.179688 11.359375 -0.324219 L 11.359375 -18.277344 Z M 0.394531 -23.757812 L 16.84375 -23.757812 C 17.09375 -23.757812 17.238281 -23.902344 17.238281 -24.082031 L 17.238281 -28.34375 C 17.238281 -28.488281 17.09375 -28.667969 16.84375 -28.667969 L 0.394531 -28.667969 C 0.179688 -28.667969 0 -28.488281 0 -28.34375 L 0 -24.082031 C 0 -23.902344 0.179688 -23.757812 0.394531 -23.757812 Z M 0.394531 -23.757812 "/></g></g></g></svg>